<svg xmlns="http://www.w3.org/2000/svg" xmlns:xlink="http://www.w3.org/1999/xlink" width="128" height="128" viewBox="0 0 128 128">
  <defs>
    <clipPath id="clip-path">
      <rect id="長方形_30" data-name="長方形 30" width="128" height="128" fill="#afafaf"/>
    </clipPath>
  </defs>
  <g id="tw" clip-path="url(#clip-path)">
    <g id="Twitter_social_icons_-_rounded_square_-_blue" data-name="Twitter social icons - rounded square - blue">
      <g id="Dark_Blue">
        <path id="パス_86" data-name="パス 86" d="M112,128H16A16.006,16.006,0,0,1,0,112V16A16.006,16.006,0,0,1,16,0h96a16.006,16.006,0,0,1,16,16v96A16.006,16.006,0,0,1,112,128Z" fill="#1d9bf0"/>
      </g>
      <g id="Logo__x2014__FIXED" transform="translate(24.032 31.488)">
        <path id="パス_87" data-name="パス 87" d="M33.757,76.34c30.176,0,46.688-25.024,46.688-46.688,0-.7,0-1.408-.032-2.112A33.429,33.429,0,0,0,88.6,19.028a33.257,33.257,0,0,1-9.44,2.592A16.509,16.509,0,0,0,86.4,12.532,32.64,32.64,0,0,1,75.965,16.5,16.413,16.413,0,0,0,47.58,27.732,18.137,18.137,0,0,0,48,31.476,46.6,46.6,0,0,1,14.173,14.324a16.475,16.475,0,0,0,5.088,21.92A16.6,16.6,0,0,1,11.836,34.2v.224a16.444,16.444,0,0,0,13.152,16.1A16.5,16.5,0,0,1,17.6,50.8,16.408,16.408,0,0,0,32.924,62.2a32.911,32.911,0,0,1-20.384,7.04,31.576,31.576,0,0,1-3.9-.224,46.676,46.676,0,0,0,25.12,7.328" transform="translate(-8.637 -11.316)" fill="#fff"/>
      </g>
    </g>
  </g>
</svg>
